<svg width="26" height="25" viewBox="0 0 26 25" fill="none" xmlns="http://www.w3.org/2000/svg">
<path d="M20.9183 17.6277C19.88 17.6277 18.951 17.9981 18.2406 18.5783L8.49984 13.4551C8.56814 13.1712 8.62279 12.8873 8.62279 12.591C8.62279 12.2947 8.56814 12.0108 8.49984 11.7268L18.1313 6.65309C18.8691 7.27034 19.839 7.65303 20.9183 7.65303C23.1861 7.65303 25.0168 5.99881 25.0168 3.94956C25.0168 1.90031 23.1861 0.246094 20.9183 0.246094C18.6505 0.246094 16.8198 1.90031 16.8198 3.94956C16.8198 4.24584 16.8744 4.52977 16.9428 4.8137L7.31127 9.88746C6.57354 9.27021 5.60356 8.88752 4.52429 8.88752C2.25645 8.88752 0.425781 10.5417 0.425781 12.591C0.425781 14.6402 2.25645 16.2945 4.52429 16.2945C5.60356 16.2945 6.57354 15.9118 7.31127 15.2945L17.0384 20.43C16.9701 20.6892 16.9291 20.9608 16.9291 21.2324C16.9291 23.2199 18.7188 24.8371 20.9183 24.8371C23.1178 24.8371 24.9075 23.2199 24.9075 21.2324C24.9075 19.2449 23.1178 17.6277 20.9183 17.6277Z" fill="#1A2747"/>
</svg>
