<svg width="25" height="26" viewBox="0 0 25 26" fill="none" xmlns="http://www.w3.org/2000/svg">
<path d="M20.684 18.0219C19.6404 18.0219 18.7066 18.3942 17.9925 18.9774L8.20158 13.8278C8.27024 13.5425 8.32516 13.2571 8.32516 12.9593C8.32516 12.6615 8.27024 12.3761 8.20158 12.0907L17.8827 6.99078C18.6242 7.6112 19.5992 7.99586 20.684 7.99586C22.9635 7.99586 24.8036 6.33313 24.8036 4.27332C24.8036 2.21352 22.9635 0.550781 20.684 0.550781C18.4045 0.550781 16.5644 2.21352 16.5644 4.27332C16.5644 4.57113 16.6193 4.85652 16.688 5.14192L7.00689 10.2418C6.26536 9.62138 5.29038 9.23671 4.20555 9.23671C1.92603 9.23671 0.0859375 10.8994 0.0859375 12.9593C0.0859375 15.0191 1.92603 16.6818 4.20555 16.6818C5.29038 16.6818 6.26536 16.2971 7.00689 15.6767L16.7841 20.8386C16.7154 21.0992 16.6742 21.3722 16.6742 21.6452C16.6742 23.6429 18.4731 25.2685 20.684 25.2685C22.8949 25.2685 24.6938 23.6429 24.6938 21.6452C24.6938 19.6474 22.8949 18.0219 20.684 18.0219Z" fill="#1A2747"/>
</svg>
